<svg width="102" height="102" viewBox="0 0 102 102" fill="none" xmlns="http://www.w3.org/2000/svg">
<path d="M41.9005 54.0417C41.9005 54.0417 39.2836 55.5645 43.766 56.0793C49.1959 56.6992 51.9714 56.61 57.9543 55.4792C57.9543 55.4792 59.5314 56.465 61.7275 57.3192C48.3113 63.0671 31.3634 56.9861 41.9005 54.0417ZM40.2597 46.5391C40.2597 46.5391 37.324 48.7138 41.8096 49.1775C47.6109 49.776 52.1905 49.8254 60.121 48.2986C60.121 48.2986 61.2152 49.411 62.9388 50.0175C46.7208 54.762 28.6564 50.3912 40.2597 46.5391Z" fill="#0074BD"/>
<path d="M54.0799 33.8122C57.3877 37.6197 53.2129 41.043 53.2129 41.043C53.2129 41.043 61.6064 36.7104 57.7519 31.2829C54.1508 26.2235 51.3913 23.711 66.3351 15.0442C66.3351 15.0442 42.8766 20.9012 54.0799 33.8122Z" fill="#EA2D2E"/>
<path d="M71.8239 59.5911C71.8239 59.5911 73.7619 61.1888 69.6899 62.424C61.9475 64.7692 37.4611 65.4768 30.6598 62.5172C28.2165 61.4534 32.801 59.9776 34.2425 59.6676C35.7462 59.3417 36.6052 59.4015 36.6052 59.4015C33.8863 57.4866 19.0302 63.1619 29.0596 64.7899C56.4116 69.2229 78.9177 62.793 71.8239 59.5911ZM43.1603 38.7656C43.1603 38.7656 30.706 41.7244 38.7504 42.8002C42.1483 43.2544 48.917 43.15 55.2266 42.6209C60.3816 42.1882 65.5549 41.263 65.5549 41.263C65.5549 41.263 63.7388 42.0423 62.4232 42.9396C49.7736 46.2666 25.3422 44.7166 32.3762 41.3156C38.3233 38.4381 43.1603 38.7656 43.1603 38.7656ZM65.5031 51.2526C78.3607 44.5732 72.4152 38.1536 68.2659 39.0182C67.2515 39.2302 66.7957 39.4134 66.7957 39.4134C66.7957 39.4134 67.1742 38.8206 67.8937 38.5664C76.1032 35.6817 82.4152 47.0778 65.2465 51.5913C65.2465 51.5913 65.4434 51.4128 65.5031 51.2526Z" fill="#0074BD"/>
<path d="M57.7527 1.0463C57.7527 1.0463 64.8728 8.16956 50.9984 19.121C39.8724 27.9082 48.4612 32.9173 50.9936 38.6429C44.4991 32.7826 39.7354 27.6237 42.9309 22.8233C47.6236 15.7773 60.6247 12.3595 57.7527 1.0463Z" fill="#EA2D2E"/>
<path d="M44.425 69.3592C56.7638 70.1481 75.7175 68.9201 76.1661 63.0814C76.1661 63.0814 75.3039 65.2943 65.9669 67.0507C55.4338 69.0333 42.4408 68.803 34.7366 67.5312C34.7366 67.5312 36.3144 68.838 44.425 69.3592Z" fill="#0074BD"/>
<path d="M75.5963 79.8317H75.2202V79.6214H76.2322V79.8317H75.8577V80.8812H75.5955L75.5963 79.8317ZM77.6164 79.8843H77.6116L77.2387 80.8812H77.0666L76.696 79.8843H76.692V80.8812H76.4434V79.6214H76.8076L77.151 80.5131L77.4953 79.6214H77.8571V80.8812H77.6164V79.8843ZM42.4025 91.6701C41.2391 92.679 40.0087 93.2463 38.9034 93.2463C37.3304 93.2463 36.477 92.3012 36.477 90.788C36.477 89.1504 37.3902 87.9511 41.0494 87.9511H42.4017L42.4025 91.6701ZM45.6147 95.2943V84.0767C45.6147 81.2087 43.9787 79.317 40.039 79.317C37.7392 79.317 35.7231 79.8859 34.0839 80.6095L34.5557 82.5961C35.8466 82.122 37.5161 81.6821 39.1544 81.6821C41.4255 81.6821 42.4017 82.5961 42.4017 84.4879V85.9055H41.267C35.7518 85.9055 33.2632 88.0451 33.2632 91.2629C33.2632 94.0352 34.9031 95.6107 37.991 95.6107C39.9752 95.6107 41.4582 94.7915 42.8424 93.5922L43.0942 95.2951L45.6147 95.2943ZM56.3343 95.2943H52.3284L47.5065 79.6046H51.0056L53.9986 89.246L54.664 92.1427C56.1749 87.9527 57.2459 83.699 57.7814 79.6054H61.1849C60.274 84.77 58.6325 90.4413 56.3343 95.2943ZM71.7044 91.6701C70.537 92.679 69.3058 93.2463 68.2045 93.2463C66.6299 93.2463 65.7772 92.3012 65.7772 90.788C65.7772 89.1504 66.6929 87.9511 70.3481 87.9511H71.7036L71.7044 91.6701ZM74.9182 95.2943V84.0767C74.9182 81.2087 73.2774 79.317 69.3409 79.317C67.0387 79.317 65.0234 79.8859 63.3842 80.6095L63.8568 82.5961C65.1477 82.122 66.8196 81.6821 68.4579 81.6821C70.7258 81.6821 71.7044 82.5961 71.7044 84.4879V85.9055H70.5697C65.0529 85.9055 62.565 88.0451 62.565 91.2629C62.565 94.0352 64.2034 95.6107 67.2905 95.6107C69.2755 95.6107 70.7561 94.7915 72.1443 93.5922L72.3977 95.2951L74.9182 95.2943ZM29.741 97.9606C28.8269 99.2986 27.3464 100.358 25.7271 100.955L24.1421 99.0858C25.3749 98.4531 26.4307 97.4323 26.9224 96.4808C27.3464 95.6338 27.5225 94.5444 27.5225 91.9379V74.0225H30.9363V91.6916C30.9363 95.178 30.659 96.5876 29.741 97.9606Z" fill="#EA2D2E"/>
</svg>
