<svg width="225" height="79" viewBox="0 0 225 79" fill="none" xmlns="http://www.w3.org/2000/svg">
<path d="M200.962 64.8299C200.452 64.8299 199.946 64.6994 199.499 64.4452L194.841 61.7524C194.145 61.3728 194.484 61.2372 194.715 61.1599C195.643 60.8439 195.831 60.77 196.821 60.2239C196.924 60.1672 197.06 60.1878 197.167 60.2497L200.744 62.326C200.874 62.3964 201.059 62.3964 201.176 62.326L215.128 54.4586C215.26 54.3865 215.343 54.2405 215.343 54.0894V38.3581C215.343 38.2035 215.26 38.061 215.126 37.982L201.18 30.1215C201.05 30.0493 200.879 30.0493 200.749 30.1215L186.804 37.9837C186.671 38.061 186.585 38.2087 186.585 38.3581V54.0894C186.585 54.2405 186.671 54.383 186.804 54.4535L190.626 56.6122C192.7 57.6238 193.971 56.4319 193.971 55.2332V39.6993C193.971 39.4812 194.152 39.3078 194.375 39.3078H196.145C196.365 39.3078 196.548 39.4812 196.548 39.6993V55.2332C196.548 57.9363 195.042 59.4871 192.417 59.4871C191.61 59.4871 190.976 59.4871 189.204 58.6353L185.546 56.5779C184.641 56.0661 184.083 55.1112 184.083 54.0911V38.3598C184.083 37.3379 184.641 36.3848 185.546 35.8764L199.498 27.9988C200.38 27.5127 201.553 27.5127 202.428 27.9988L216.38 35.8764C217.283 36.3865 217.844 37.3396 217.844 38.3598V54.0911C217.844 55.1129 217.283 56.0627 216.38 56.5779L202.428 64.447C201.985 64.6994 201.48 64.8299 200.962 64.8299ZM205.274 53.9915C199.165 53.9915 197.887 51.2522 197.887 48.9561C197.887 48.7397 198.069 48.5628 198.292 48.5628H200.095C200.297 48.5628 200.464 48.7036 200.496 48.896C200.767 50.6907 201.581 51.5957 205.274 51.5957C208.211 51.5957 209.463 50.9465 209.463 49.4215C209.463 48.5422 209.108 47.8913 204.541 47.4534C200.723 47.0841 198.362 46.2615 198.362 43.275C198.362 40.5254 200.735 38.8836 204.711 38.8836C209.181 38.8836 211.393 40.4 211.672 43.6528C211.683 43.7627 211.642 43.8709 211.567 43.955C211.489 44.0323 211.384 44.0804 211.271 44.0804H209.459C209.271 44.0804 209.106 43.9516 209.067 43.773C208.631 41.8839 207.577 41.2811 204.71 41.2811C201.502 41.2811 201.129 42.375 201.129 43.1908C201.129 44.1817 201.568 44.4703 205.901 45.0301C210.189 45.5849 212.226 46.368 212.226 49.3133C212.228 52.2895 209.693 53.9915 205.274 53.9915Z" fill="#83CD29"/>
<path d="M172.234 43.6735C172.784 43.3592 173.123 42.7856 173.123 42.1622V38.1194C173.123 37.4977 172.786 36.9241 172.234 36.6098L157.532 28.2702C156.978 27.9559 156.296 27.9542 155.74 28.2667L140.947 36.6115C140.395 36.9241 140.054 37.4994 140.054 38.1228V54.809C140.054 55.4359 140.398 56.0163 140.957 56.3272L155.658 64.5106C156.199 64.8146 156.864 64.8163 157.41 64.5209L166.301 59.6916C166.584 59.537 166.76 59.2485 166.762 58.9359C166.764 58.6199 166.591 58.328 166.312 58.1717L151.427 49.8252C151.147 49.6689 150.977 49.3803 150.977 49.0695V43.8383C150.977 43.5258 151.147 43.239 151.423 43.0844L156.059 40.474C156.333 40.3177 156.674 40.3177 156.95 40.474L161.585 43.0844C161.863 43.2407 162.033 43.5275 162.033 43.8383V47.9532C162.033 48.2675 162.204 48.556 162.48 48.7106C162.758 48.8668 163.099 48.8668 163.376 48.7088L172.234 43.6735Z" fill="#83CD29"/>
<path d="M156.417 42.8901C156.524 42.8317 156.654 42.8317 156.76 42.8901L159.599 44.4924C159.704 44.5525 159.769 44.6642 159.769 44.7827V47.9856C159.769 48.1058 159.704 48.2157 159.599 48.2758L156.76 49.8765C156.654 49.9366 156.523 49.9366 156.417 49.8765L153.58 48.2758C153.473 48.2157 153.408 48.1058 153.408 47.9856V44.7827C153.408 44.6642 153.473 44.5525 153.58 44.4924L156.417 42.8901Z" fill="#83CD29"/>
<path d="M117.919 49.5536C117.919 49.7082 117.835 49.8524 117.696 49.9314L112.616 52.7926C112.477 52.8716 112.307 52.8716 112.17 52.7926L107.089 49.9314C106.951 49.8524 106.866 49.7082 106.866 49.5536V43.821C106.866 43.6664 106.952 43.5204 107.089 43.4414L112.17 40.5768C112.308 40.4961 112.479 40.4961 112.618 40.5768L117.7 43.4414C117.837 43.5204 117.921 43.6664 117.921 43.821L117.919 49.5536ZM119.292 7.10658C119.016 6.95717 118.679 6.9606 118.404 7.11689C118.132 7.27489 117.963 7.55997 117.963 7.8691V30.0492C117.963 30.2656 117.844 30.4683 117.652 30.5782C117.459 30.6864 117.22 30.6864 117.026 30.5782L113.321 28.4915C112.769 28.1807 112.089 28.1807 111.537 28.4915L96.7395 36.8346C96.1857 37.1472 95.8447 37.7242 95.8447 38.3476V55.039C95.8447 55.6624 96.1857 56.2377 96.7377 56.552L111.535 64.9002C112.087 65.2128 112.769 65.2128 113.323 64.9002L128.123 56.552C128.675 56.2377 129.016 55.6624 129.016 55.039V13.4317C129.016 12.7997 128.665 12.2158 128.101 11.9067L119.292 7.10658Z" fill="#83CD29"/>
<path d="M67.2152 28.1773C67.7672 27.8647 68.4492 27.8647 69.0012 28.1773L83.7984 36.5186C84.3504 36.8312 84.6914 37.4082 84.6914 38.0316V54.7281C84.6914 55.3515 84.3504 55.9286 83.7984 56.2412L69.0029 64.5894C68.451 64.9002 67.7689 64.9002 67.2152 64.5894L52.4232 56.2412C51.8713 55.9286 51.5303 55.3515 51.5303 54.7281V38.0299C51.5303 37.4082 51.8713 36.8312 52.4232 36.5186L67.2152 28.1773Z" fill="#83CD29"/>
<path d="M40.3066 37.8926C40.3066 37.2641 39.9691 36.687 39.4136 36.3762L24.6217 28.0589C24.3685 27.9146 24.089 27.8407 23.806 27.8304H23.6531C23.3718 27.8407 23.0906 27.9146 22.8375 28.0589L8.04373 36.3762C7.49353 36.687 7.149 37.2641 7.149 37.8926L7.18064 60.2874C7.18064 60.6 7.34763 60.8902 7.62712 61.0414C7.90134 61.2028 8.2406 61.2028 8.51482 61.0414L17.3039 56.1227C17.8593 55.7999 18.1986 55.2314 18.1986 54.608V44.1457C18.1986 43.5205 18.5361 42.9452 19.0898 42.6326L22.834 40.5271C23.1117 40.3674 23.4176 40.2918 23.7269 40.2918C24.0328 40.2918 24.3457 40.3674 24.6181 40.5271L28.3588 42.6326C28.9125 42.9452 29.2535 43.5205 29.2535 44.1457V54.608C29.2535 55.2314 29.5963 55.8033 30.1482 56.1227L38.9373 61.0414C39.2133 61.2028 39.5578 61.2028 39.8302 61.0414C40.1027 60.8885 40.2732 60.5983 40.2732 60.2874L40.3066 37.8926Z" fill="#83CD29"/>
</svg>
